<svg xmlns="http://www.w3.org/2000/svg" xmlns:xlink="http://www.w3.org/1999/xlink" width="512" zoomAndPan="magnify" viewBox="0 0 384 383.999986" height="512" preserveAspectRatio="xMidYMid meet" version="1.0"><rect x="-38.4" width="460.8" fill="#ffffff" y="-38.399999" height="460.799983" fill-opacity="1"/><rect x="-38.4" width="460.8" fill="#ffffff" y="-38.399999" height="460.799983" fill-opacity="1"/><path fill="#ffffff" d="M 0 -3.742188 L 384 -3.742188 L 384 383.257812 L 0 383.257812 Z M 0 -3.742188 " fill-opacity="1" fill-rule="nonzero"/><path fill="#ed1c24" d="M 245.085938 192.753906 C 254.664062 196.425781 265.484375 197.652344 276.484375 198.175781 C 276.484375 198.183594 277.089844 197.980469 277.375 199.050781 C 277.652344 200.117188 276.132812 200.28125 276.132812 200.28125 C 261.050781 200.625 238.257812 196.8125 234.105469 194.398438 C 230.417969 186.835938 224.15625 187.328125 219.015625 184.351562 C 218.835938 182.425781 220.246094 181.902344 221.671875 181.03125 C 230.539062 182.246094 236.566406 190.125 245.085938 192.753906 " fill-opacity="1" fill-rule="nonzero"/><path fill="#ed1c24" d="M 178.5625 185.578125 C 180.335938 189.953125 175.542969 196.164062 182.8125 197.910156 C 186.003906 198.832031 187.46875 199.800781 190.980469 196.949219 C 192.535156 195.664062 192.867188 193.636719 191.867188 191.875 C 190.535156 190.050781 189.738281 188.03125 190.089844 186.449219 L 190.445312 186.097656 C 192.867188 186.128906 193.460938 192.226562 196.832031 194.503906 C 201.804688 186.625 211.910156 194.324219 217.410156 187.671875 C 221.492188 189.074219 226.992188 189.773438 228.761719 193.972656 C 225.570312 195.375 221.492188 194.847656 218.121094 196.078125 C 207.121094 200.277344 193 212.3125 181.929688 201.148438 L 169.691406 185.578125 C 171.996094 183.824219 175.546875 185.578125 178.5625 185.578125 " fill-opacity="1" fill-rule="nonzero"/><path fill="#ed1c24" d="M 128.265625 96.445312 C 124.503906 98.21875 123.566406 103.144531 119.84375 105.777344 C 112.710938 103.328125 107.421875 103.960938 101.570312 108.398438 C 100.148438 105.421875 101.925781 102.625 103.699219 100.347656 C 109.734375 93.875 119.132812 102.976562 124.988281 95.792969 C 126.792969 94.21875 129.675781 95.355469 128.265625 96.445312 " fill-opacity="1" fill-rule="nonzero"/><path fill="#ed1c24" d="M 140.777344 96.675781 C 141.9375 99.050781 140.460938 103.519531 138.644531 104.195312 C 132.882812 105.804688 128.003906 110.148438 121.96875 107.527344 C 124.988281 103.144531 128.183594 99.101562 134.75 100.324219 C 136.875 99.972656 139.910156 95.863281 140.777344 96.675781 " fill-opacity="1" fill-rule="nonzero"/><path fill="#ed1c24" d="M 128.714844 109.625 C 130.488281 112.773438 127.546875 115.117188 125.542969 117.457031 C 121.632812 120.195312 116.648438 121.175781 111.683594 120.125 C 109.378906 119.25 106.894531 116.625 104.050781 118.023438 C 99.972656 122.050781 107.964844 123.996094 106.546875 128.019531 C 102.753906 128.179688 100.285156 128.519531 97.105469 130.21875 C 94.621094 124.273438 101.21875 121.570312 100.679688 115.574219 C 100.503906 114.042969 105.167969 108.332031 110.441406 107.527344 C 117.890625 104.902344 121.96875 116.796875 128.714844 109.625 " fill-opacity="1" fill-rule="nonzero"/><path fill="#ed1c24" d="M 107.425781 133.074219 C 108.316406 135.890625 109.199219 139.203125 106.179688 140.773438 C 102.316406 141.75 99.921875 138.675781 98.679688 135.699219 C 98.507812 133.25 99.535156 131.496094 101.925781 130.460938 C 104.410156 129.9375 107.070312 130.796875 107.425781 133.074219 " fill-opacity="1" fill-rule="nonzero"/><path fill="#ed1c24" d="M 150.53125 133.949219 C 153.726562 136.574219 154.609375 140.25 154.789062 144.101562 C 154.082031 147.945312 153.015625 151.800781 149.644531 154.601562 C 145.566406 158.625 138.472656 156 133.855469 159.148438 C 132.4375 159.503906 130.808594 158.644531 129.722656 157.835938 C 131.578125 156.773438 131.90625 158.09375 135.101562 152.5 C 141.664062 153.375 142.691406 146.769531 145.390625 142.351562 C 146.273438 136.054688 129.066406 134.296875 139.890625 130.273438 C 143.792969 130.453125 147.695312 130.972656 150.53125 133.949219 " fill-opacity="1" fill-rule="nonzero"/><path fill="#ed1c24" d="M 265.484375 151.28125 C 274.175781 158.972656 280.917969 167.550781 285.882812 176.828125 C 281.628906 179.101562 277.90625 184.351562 272.226562 182.246094 C 269.742188 179.976562 265.667969 183.476562 264.597656 179.277344 C 264.070312 171.929688 261.40625 165.453125 256.972656 159.675781 C 259.457031 158.800781 261.226562 154.773438 258.210938 152.847656 C 253.953125 149 249.699219 145.148438 244.554688 143.222656 C 245.085938 139.898438 248.988281 139.898438 251.46875 140.773438 L 265.484375 151.28125 " fill-opacity="1" fill-rule="nonzero"/><path fill="#ed1c24" d="M 121.617188 166.675781 C 120.375 169.125 117 169.125 114.703125 168.425781 C 103.523438 163.703125 108.488281 150.921875 102.460938 143.222656 C 104.765625 143.046875 108.488281 144.101562 110.085938 140.773438 C 110.972656 150.222656 125.699219 155.296875 121.617188 166.675781 " fill-opacity="1" fill-rule="nonzero"/><path fill="#ed1c24" d="M 168.453125 142.875 C 180.335938 147.777344 192.21875 153.023438 203.753906 158.800781 C 203.75 158.800781 204.972656 160.257812 203.753906 160.375 C 202.527344 160.492188 193.476562 162.269531 190.648438 157.492188 C 190.078125 157.273438 173.8125 151.710938 164.546875 153.066406 C 162.597656 150.613281 160.289062 149.703125 157.804688 149.175781 C 154.082031 141.996094 164.195312 140.773438 168.453125 142.875 " fill-opacity="1" fill-rule="nonzero"/><path fill="#ed1c24" d="M 231.726562 160.894531 C 222.886719 168.597656 207.671875 180.460938 192.773438 181.574219 C 194.867188 176.496094 195.71875 169.910156 194.664062 163.351562 C 206.722656 165.101562 214.417969 162.679688 222.660156 154.402344 C 227.855469 148.800781 237.988281 152.847656 242.066406 146.546875 C 244.984375 145.011719 251.570312 148.96875 255.195312 153.375 C 256.082031 155.125 254.136719 156 252.710938 155.824219 C 244.636719 153.816406 237.664062 156.53125 231.726562 160.894531 " fill-opacity="1" fill-rule="nonzero"/><path fill="#ed1c24" d="M 161.535156 153.726562 C 159.761719 157.617188 159.578125 161.597656 162.417969 164.578125 C 166.675781 169.304688 172.710938 169.652344 178.5625 170.523438 C 178.910156 174.554688 180.074219 178.402344 179.359375 182.246094 C 173.503906 182.605469 167.429688 181.917969 161.179688 181.75 C 151.121094 181.476562 145.429688 179.148438 135.851562 175.890625 C 130.714844 173.777344 124.707031 173.097656 123.65625 170.875 C 122.960938 169.414062 125.617188 160.902344 125.617188 160.902344 C 130.585938 158.101562 135.101562 164.753906 139.890625 160.03125 C 146.984375 160.550781 152.308594 156.527344 156.035156 151.28125 C 158.160156 151.449219 159.933594 152.320312 161.535156 153.726562 " fill-opacity="1" fill-rule="nonzero"/><path fill="#ed1c24" d="M 190.089844 160.003906 C 193.917969 163.363281 191.511719 169.652344 191.335938 174.375 C 190.445312 178.226562 189.738281 182.074219 188.847656 186.101562 C 186.027344 186.867188 184.238281 186.101562 182.464844 185.222656 L 181.574219 168.777344 C 175.1875 165.980469 165.332031 168.425781 162.671875 160.375 C 162.496094 158.273438 164.015625 156.351562 165.789062 155.476562 C 174.59375 154.6875 189.394531 159.25 190.089844 160.003906 " fill-opacity="1" fill-rule="nonzero"/><path fill="#ed1c24" d="M 181.667969 195.152344 C 179.65625 193.917969 180.3125 192.050781 181.324219 189.765625 C 182.113281 187.871094 184.8125 188.207031 186.589844 188.554688 C 188.1875 189.082031 189.902344 191.167969 189.957031 193.496094 C 189.957031 193.496094 187.925781 198.980469 181.667969 195.152344 " fill-opacity="1" fill-rule="nonzero"/><path fill="#ed1c24" d="M 126.199219 156.824219 C 128.941406 156.824219 131.167969 154.5625 131.167969 151.777344 C 131.167969 148.992188 128.9375 146.730469 126.199219 146.730469 C 123.457031 146.730469 121.234375 148.992188 121.234375 151.777344 C 121.230469 154.5625 123.453125 156.824219 126.199219 156.824219 " fill-opacity="1" fill-rule="nonzero"/><path fill="#ed1c24" d="M 131.246094 133.152344 L 142.003906 140.191406 C 142.003906 140.191406 143.539062 141.507812 142.003906 143.925781 C 140.46875 146.34375 138.714844 148.980469 138.714844 148.980469 C 138.710938 148.984375 137.835938 150.730469 135.53125 148.980469 C 133.222656 147.21875 124.445312 141.839844 124.445312 141.839844 C 124.441406 141.839844 122.578125 140.847656 123.894531 138.867188 C 125.210938 136.890625 127.84375 133.375 127.84375 133.375 C 127.84375 133.378906 129.378906 131.730469 131.246094 133.152344 " fill-opacity="1" fill-rule="nonzero"/><path fill="#034ea2" d="M 201.402344 222.519531 L 177.210938 222.519531 C 174.429688 222.519531 173.214844 224.613281 174.511719 227.179688 L 184.523438 246.03125 C 186.746094 250.625 190.839844 250.914062 193.898438 246.335938 L 204.105469 227.179688 C 205.40625 224.613281 204.1875 222.519531 201.402344 222.519531 " fill-opacity="1" fill-rule="evenodd"/><path fill="#034ea2" d="M 164.621094 138.8125 C 169.722656 139.421875 176.824219 142.355469 184.949219 145.816406 L 218.3125 145.816406 C 221.09375 145.816406 223.242188 143.539062 223.089844 140.761719 L 220.941406 118.894531 C 220.539062 116.140625 217.9375 113.886719 215.152344 113.886719 L 163.464844 113.886719 C 160.683594 113.886719 158.074219 116.140625 157.679688 118.894531 L 156.207031 133.835938 C 157.421875 136.242188 157.089844 138.558594 157.277344 139.378906 C 157.417969 139.992188 160.070312 138.265625 164.621094 138.8125 " fill-opacity="1" fill-rule="evenodd"/><path fill="#034ea2" d="M 176.460938 73.957031 L 202.160156 73.957031 C 204.941406 73.957031 206.175781 71.851562 204.898438 69.277344 L 194.40625 49.285156 C 192.007812 44.382812 186.445312 44.675781 183.96875 49.667969 L 173.714844 69.277344 C 172.445312 71.851562 173.679688 73.957031 176.460938 73.957031 " fill-opacity="1" fill-rule="evenodd"/><path fill="#034ea2" d="M 214.871094 182.4375 C 215.941406 181.8125 217.292969 180.816406 218.050781 180.460938 C 219.703125 179.6875 220.640625 177.800781 220.699219 177.429688 C 220.699219 177.429688 222.226562 174.46875 221.109375 173.507812 C 220.765625 173.210938 203.710938 181.742188 203.128906 182.4375 C 202.121094 183.640625 212.457031 183.84375 214.871094 182.4375 " fill-opacity="1" fill-rule="evenodd"/><path fill="#034ea2" d="M 209.25 159.675781 C 212.878906 160.460938 217.585938 154.960938 221.703125 151.617188 C 220.839844 150.746094 219.644531 150.210938 218.296875 150.210938 L 195.402344 150.210938 C 196.816406 150.78125 198.242188 151.355469 199.6875 151.917969 C 207.683594 155.003906 207.980469 159.398438 209.25 159.675781 " fill-opacity="1" fill-rule="nonzero"/><path fill="#034ea2" d="M 204.105469 77.699219 L 174.503906 77.699219 C 171.722656 77.699219 168.652344 79.835938 167.679688 82.445312 L 160.621094 104.597656 C 159.894531 107.289062 161.578125 109.488281 164.363281 109.488281 L 214.253906 109.488281 C 217.035156 109.488281 218.726562 107.289062 218 104.597656 L 210.9375 82.445312 C 209.964844 79.835938 206.890625 77.699219 204.105469 77.699219 " fill-opacity="1" fill-rule="nonzero"/><path fill="#034ea2" d="M 196.96875 190.542969 C 197.964844 190.976562 197.421875 189.695312 207.203125 188.101562 C 211.910156 188.664062 213.085938 187.347656 213.46875 186.832031 L 196.964844 186.832031 C 195.207031 188.917969 196.113281 190.175781 196.96875 190.542969 " fill-opacity="1" fill-rule="evenodd"/><path fill="#034ea2" d="M 180.535156 204.730469 C 175.414062 200.925781 167.3125 188.804688 166.167969 187.617188 C 165.976562 187.417969 165.335938 187.148438 164.417969 186.84375 C 161.792969 186.984375 160.261719 189.113281 160.980469 191.703125 L 168.339844 214.035156 C 169.339844 216.632812 172.425781 218.757812 175.210938 218.757812 L 203.410156 218.757812 C 206.191406 218.757812 209.28125 216.632812 210.28125 214.035156 L 214.445312 201.402344 C 212.570312 202.226562 210.417969 203.273438 207.894531 204.578125 C 192.085938 212.78125 185.761719 208.621094 180.535156 204.730469 " fill-opacity="1" fill-rule="evenodd"/><path fill="#034ea2" d="M 269.320312 113.605469 C 265.371094 113.601562 266.355469 117.589844 266.355469 117.589844 C 268.34375 125.234375 269.582031 133.179688 269.984375 141.347656 C 269.980469 141.355469 270.636719 145.445312 274.148438 145.539062 L 297.640625 145.539062 C 302.136719 145.394531 302.429688 140.460938 302.429688 140.460938 C 301.988281 132.285156 300.667969 126.097656 298.550781 118.488281 C 298.546875 118.488281 296.539062 113.714844 291.492188 113.609375 L 269.320312 113.609375 " fill-opacity="1" fill-rule="evenodd"/><path fill="#034ea2" d="M 297.417969 149.929688 L 274.148438 149.929688 C 272.324219 149.9375 271.289062 150.882812 270.691406 151.863281 C 275.988281 156.984375 281.25 162.847656 285.320312 168.480469 C 290.882812 176.195312 288.867188 177.484375 287.511719 179.03125 C 287.167969 179.421875 285.699219 180.6875 282.601562 182.160156 L 291.492188 182.160156 C 296.867188 182.101562 298.386719 176.996094 298.386719 176.996094 C 300.546875 169.371094 301.914062 163.171875 302.398438 154.96875 C 302.398438 154.972656 302.578125 149.953125 297.417969 149.929688 " fill-opacity="1" fill-rule="evenodd"/><path fill="#034ea2" d="M 249.78125 81.363281 C 255.960938 89.667969 259.023438 95.859375 262.304688 104.871094 C 262.304688 104.871094 264 109.105469 268.445312 109.210938 L 290.394531 109.210938 C 296.375 109.210938 294.1875 103.929688 294.1875 103.929688 C 290.425781 94.558594 286.277344 89.128906 279.636719 80.925781 C 277.007812 78.070312 271.6875 77.421875 271.6875 77.421875 L 253.226562 77.421875 C 247.453125 77.441406 249.78125 81.363281 249.78125 81.363281 " fill-opacity="1" fill-rule="evenodd"/><path fill="#034ea2" d="M 206.757812 43.257812 C 220.109375 50.09375 230.101562 57.875 239.976562 69.242188 C 245.320312 74.65625 249.78125 73.671875 249.78125 73.671875 L 267.34375 73.671875 C 267.34375 73.675781 274.078125 73.726562 270.160156 69.347656 C 254.152344 52.628906 233.480469 44.496094 210.125 40.414062 " fill-opacity="1" fill-rule="nonzero"/><path fill="#034ea2" d="M 199.214844 46.671875 C 203.515625 52.902344 206.832031 63 210.125 69.273438 C 210.121094 69.273438 210.933594 73.691406 216.636719 73.671875 L 233.539062 73.671875 C 239.359375 73.691406 234.394531 69.117188 234.394531 69.117188 C 224.867188 58.695312 215.453125 51.726562 202.824219 45.484375 " fill-opacity="1" fill-rule="evenodd"/><path fill="#034ea2" d="M 229.148438 109.210938 L 254.832031 109.210938 C 259.664062 109.375 257.609375 104.820312 257.609375 104.820312 C 254.304688 96.539062 250.054688 88.742188 244.984375 81.558594 C 244.984375 81.5625 243.855469 77.441406 237.929688 77.421875 L 218.394531 77.421875 C 213.894531 77.441406 216.128906 81.523438 216.128906 81.523438 C 219.199219 89.050781 221.75 96.84375 223.75 104.855469 C 223.75 104.855469 224.757812 109.152344 229.148438 109.210938 " fill-opacity="1" fill-rule="evenodd"/><path fill="#034ea2" d="M 254.394531 186.554688 L 240.007812 186.554688 C 241.476562 187.347656 242.667969 187.941406 243.308594 188.207031 C 245.101562 188.917969 250.335938 190.832031 256.316406 192.144531 C 256.535156 191.644531 256.753906 191.152344 256.964844 190.648438 C 256.960938 190.648438 258.894531 186.496094 254.394531 186.554688 " fill-opacity="1" fill-rule="evenodd"/><path fill="#034ea2" d="M 221.085938 198.960938 C 219.457031 204.191406 217.59375 209.316406 215.496094 214.316406 C 215.496094 214.324219 212.25 218.503906 217.957031 218.484375 L 235.957031 218.484375 C 240.890625 218.503906 243.515625 214.363281 243.515625 214.363281 C 246.386719 210.480469 249.003906 206.402344 251.367188 202.160156 C 245.09375 200.878906 236.105469 198.941406 230.785156 198.75 C 227.476562 198.636719 225.570312 197.796875 221.085938 198.960938 " fill-opacity="1" fill-rule="evenodd"/><path fill="#034ea2" d="M 226.289062 178.644531 C 226.578125 179.707031 230.03125 182.140625 232.246094 182.164062 C 234.464844 182.175781 256.152344 182.164062 256.152344 182.164062 C 258.625 182.128906 259.953125 180.941406 260.65625 179.824219 C 260.65625 179.5625 260.652344 179.335938 260.644531 179.171875 C 260.566406 177.441406 261.023438 174.042969 257.839844 166.257812 C 254.347656 157.699219 247.628906 157.457031 242.070312 158.988281 C 235.765625 160.71875 228.464844 166.53125 227.644531 168.292969 C 226.832031 170.046875 226.011719 177.160156 226.011719 177.160156 C 226.011719 177.164062 225.992188 177.578125 226.289062 178.644531 " fill-opacity="1" fill-rule="evenodd"/><path fill="#034ea2" d="M 250.027344 136.832031 C 252.789062 137.335938 257.742188 140.5625 263.328125 145.21875 C 266.097656 144.246094 265.542969 141.339844 265.542969 141.339844 C 265.140625 133.199219 263.898438 125.269531 261.871094 117.667969 C 261.867188 117.667969 261.421875 113.765625 256.808594 113.605469 L 229.804688 113.605469 C 226.078125 113.550781 226.429688 117.617188 226.429688 117.617188 C 227.75 125.363281 228.558594 133.28125 228.828125 141.339844 C 228.828125 141.34375 230 146.453125 233.949219 146.433594 L 237.683594 146.433594 C 239.660156 145.78125 240.695312 144.214844 240.875 143.34375 C 241.417969 140.792969 243.589844 135.664062 250.027344 136.832031 " fill-opacity="1" fill-rule="evenodd"/><path fill="#034ea2" d="M 266.183594 222.355469 L 248.621094 222.355469 C 248.621094 222.359375 244.164062 221.371094 238.820312 226.785156 C 228.941406 238.15625 218.949219 245.929688 205.59375 252.769531 C 201.222656 255.046875 202.90625 256.414062 208.96875 255.613281 C 232.324219 251.535156 252.988281 243.402344 268.996094 226.679688 C 272.917969 222.300781 266.183594 222.355469 266.183594 222.355469 " fill-opacity="1" fill-rule="evenodd"/><path fill="#034ea2" d="M 233.238281 226.917969 C 233.234375 226.917969 238.191406 222.347656 232.378906 222.355469 L 215.476562 222.355469 C 209.765625 222.347656 208.957031 226.757812 208.957031 226.757812 C 205.667969 233.03125 202.351562 243.125 198.046875 249.355469 C 196.617188 251.765625 198.222656 251.921875 201.664062 250.554688 C 214.289062 244.300781 223.703125 237.328125 233.238281 226.917969 " fill-opacity="1" fill-rule="evenodd"/><path fill="#034ea2" d="M 130.636719 214.691406 C 125.453125 207.328125 121.09375 199.34375 117.703125 190.859375 C 117.699219 190.859375 117.199219 186.773438 112.371094 186.832031 L 89.320312 186.832031 C 84.269531 186.992188 85.75 192.183594 85.75 192.183594 C 89.304688 200.53125 93.847656 207.476562 99.230469 214.632812 C 99.230469 214.632812 100.625 218.777344 106.882812 218.757812 L 129.710938 218.757812 C 133.332031 218.777344 130.636719 214.691406 130.636719 214.691406 " fill-opacity="1" fill-rule="evenodd"/><path fill="#034ea2" d="M 95.496094 136.234375 C 94.363281 134.78125 96.097656 133.257812 95.535156 132.722656 C 90.636719 128.085938 94.164062 124.476562 95.289062 121.492188 C 96 119.597656 97.003906 116.628906 97.488281 113.886719 L 88.003906 113.886719 C 82.953125 113.992188 80.941406 118.761719 80.941406 118.761719 C 78.828125 126.378906 77.507812 132.558594 77.070312 140.738281 C 77.070312 140.738281 77.359375 145.667969 81.859375 145.816406 L 100.472656 145.816406 C 100.421875 145.625 100.367188 145.457031 100.34375 145.339844 C 100.046875 144.164062 98.289062 139.835938 95.496094 136.234375 " fill-opacity="1" fill-rule="evenodd"/><path fill="#034ea2" d="M 103.125 157.863281 C 102.769531 154.929688 102.21875 152.308594 101.699219 150.210938 L 82.074219 150.210938 C 76.921875 150.226562 77.09375 155.246094 77.09375 155.246094 C 77.578125 163.449219 78.949219 169.644531 81.109375 177.277344 C 81.109375 177.277344 82.621094 182.378906 88.003906 182.4375 L 110.613281 182.4375 C 115.113281 182.378906 114.171875 176.71875 114.171875 176.71875 C 113.949219 174.359375 113.480469 173.742188 111.796875 171.210938 C 109.042969 169.449219 103.957031 164.820312 103.125 157.863281 " fill-opacity="1" fill-rule="evenodd"/><path fill="#034ea2" d="M 100.566406 99.050781 C 103.609375 94.441406 113.109375 95.40625 116.058594 95.378906 C 118.476562 95.351562 120.21875 94.890625 121.714844 94.382812 C 123.800781 90.226562 126.273438 86.257812 129.710938 81.640625 C 129.710938 81.640625 132.042969 77.722656 126.265625 77.699219 L 107.808594 77.699219 C 107.804688 77.703125 103.324219 77.777344 99.859375 81.199219 C 93.21875 89.402344 89.074219 94.832031 85.316406 104.199219 C 85.3125 104.199219 83.121094 109.488281 89.105469 109.488281 L 97.652344 109.488281 C 97.09375 106.324219 97.460938 103.742188 100.566406 99.050781 " fill-opacity="1" fill-rule="evenodd"/><path fill="#034ea2" d="M 169.363281 40.703125 C 146.015625 44.78125 125.339844 52.921875 109.332031 69.636719 C 105.421875 74.015625 113.027344 73.957031 113.027344 73.957031 L 129.710938 73.957031 C 129.710938 73.957031 134.171875 74.941406 139.515625 69.523438 C 149.394531 58.160156 159.386719 50.382812 172.738281 43.546875 " fill-opacity="1" fill-rule="evenodd"/><path fill="#034ea2" d="M 176.671875 45.765625 C 164.039062 52.015625 154.628906 58.984375 145.097656 69.402344 C 145.09375 69.402344 140.136719 73.976562 145.953125 73.957031 L 162.859375 73.957031 C 168.566406 73.976562 169.375 69.558594 169.375 69.558594 C 172.664062 63.285156 175.980469 53.195312 180.28125 46.960938 " fill-opacity="1" fill-rule="evenodd"/><path fill="#034ea2" d="M 133.261719 97.78125 C 140.308594 94.460938 141.882812 91.183594 142.707031 93.703125 C 146.378906 104.917969 138.652344 107.175781 136.695312 108.15625 C 135.828125 108.585938 135.257812 108.847656 134.664062 109.488281 L 150.34375 109.488281 C 154.730469 109.429688 155.746094 105.128906 155.746094 105.128906 C 157.746094 97.117188 160.300781 89.328125 163.367188 81.796875 C 163.367188 81.796875 165.601562 77.71875 161.101562 77.699219 L 141.5625 77.699219 C 135.636719 77.71875 134.507812 81.832031 134.507812 81.832031 C 131.972656 85.421875 129.652344 89.164062 127.542969 93.039062 C 127.546875 93.039062 127.558594 93.039062 127.5625 93.039062 C 133.128906 93.367188 130.265625 99.199219 133.261719 97.78125 " fill-opacity="1" fill-rule="evenodd"/><path fill="#034ea2" d="M 143.539062 218.757812 L 161.539062 218.757812 C 167.25 218.777344 164 214.601562 164 214.601562 C 160.792969 206.9375 158.117188 199 156.015625 190.828125 C 156.015625 190.828125 155.832031 186.773438 150.785156 186.832031 L 125.101562 186.832031 C 120.605469 186.773438 122.523438 190.921875 122.523438 190.921875 C 126.066406 199.402344 130.597656 207.359375 135.980469 214.644531 C 135.976562 214.644531 138.601562 218.777344 143.539062 218.757812 " fill-opacity="1" fill-rule="evenodd"/><path fill="#034ea2" d="M 117.488281 172.933594 C 117.359375 174.726562 117.585938 176.386719 118.074219 178.125 C 118.074219 178.125 118.625 182.378906 123.347656 182.4375 L 146.855469 182.4375 C 142.761719 181.304688 128.113281 177.171875 123.085938 174.40625 C 119.550781 172.464844 117.628906 172.164062 117.488281 172.933594 " fill-opacity="1" fill-rule="evenodd"/><path fill="#034ea2" d="M 117.289062 123.839844 C 116.832031 123.875 116.484375 123.902344 116.207031 123.941406 C 115.035156 129.566406 114.285156 135.34375 113.980469 141.242188 C 114.34375 142.285156 114.867188 143.238281 115.585938 144.050781 C 116.230469 144.777344 121.195312 148.484375 123.003906 145.816406 C 123.761719 144.699219 123.417969 144.988281 123.390625 144.605469 C 123.238281 142.550781 120.824219 142.113281 120.730469 140.773438 C 120.664062 139.886719 123.710938 133.375 126.816406 130.839844 C 128.386719 129.566406 129.667969 129.777344 131.195312 131.230469 C 132.84375 132.792969 137.171875 126.785156 142.761719 127.335938 C 146.617188 127.71875 149.425781 128.507812 151.484375 129.507812 C 151.882812 125.597656 152.414062 121.722656 153.066406 117.890625 C 153.066406 117.890625 153.414062 113.828125 149.683594 113.886719 L 132.128906 113.886719 C 132.003906 114.152344 131.867188 114.433594 131.726562 114.734375 C 127.570312 123.660156 119.558594 123.65625 117.289062 123.839844 " fill-opacity="1" fill-rule="evenodd"/><path fill="#034ea2" d="M 173.894531 253.054688 C 160.546875 246.21875 150.554688 238.441406 140.675781 227.070312 C 135.332031 221.65625 130.871094 222.644531 130.871094 222.644531 L 113.3125 222.644531 C 113.308594 222.644531 106.585938 222.585938 110.496094 226.972656 C 126.5 243.6875 147.175781 251.824219 170.527344 255.902344 C 176.589844 256.703125 178.269531 255.332031 173.894531 253.054688 " fill-opacity="1" fill-rule="evenodd"/><path fill="#034ea2" d="M 170.535156 227.046875 C 170.535156 227.050781 169.730469 222.632812 164.019531 222.644531 L 147.113281 222.644531 C 141.296875 222.632812 146.261719 227.199219 146.261719 227.199219 C 155.789062 237.617188 165.207031 244.585938 177.835938 250.84375 C 181.269531 252.203125 182.882812 252.054688 181.441406 249.644531 C 177.140625 243.410156 173.828125 233.316406 170.535156 227.046875 " fill-opacity="1" fill-rule="nonzero"/><path fill="#034ea2" d="M 109.839844 133.292969 C 109.839844 133.292969 114.226562 123.1875 110.277344 121.757812 C 107.363281 120.710938 106.585938 121.960938 107.421875 123.496094 C 108.253906 125.023438 110.449219 126.363281 108.847656 130.273438 C 108.191406 131.867188 109.839844 133.292969 109.839844 133.292969 " fill-opacity="1" fill-rule="evenodd"/><path fill="#034ea2" d="M 267.0625 186.550781 L 290.171875 186.554688 C 295.222656 186.714844 293.742188 191.90625 293.742188 191.90625 C 290.191406 200.253906 285.652344 206.324219 280.269531 213.472656 C 280.269531 213.472656 277.992188 218.5 271.734375 218.484375 L 249.78125 218.484375 C 246.160156 218.503906 248.855469 214.414062 248.855469 214.414062 C 251.417969 210.773438 253.78125 206.980469 255.921875 203.046875 C 256.488281 203.148438 256.972656 203.222656 257.363281 203.269531 C 270.171875 204.730469 278.152344 204.035156 279.148438 202.902344 C 280.488281 201.363281 286.558594 192.945312 267.953125 193.464844 C 265.660156 193.53125 263.21875 193.332031 260.796875 192.972656 C 261.132812 192.175781 261.195312 191.308594 261.515625 190.503906 C 261.515625 190.503906 262.230469 186.496094 267.0625 186.550781 " fill-opacity="1" fill-rule="nonzero"/><path fill="#000000" d="M 293.160156 270.214844 C 293.78125 270.839844 294.089844 271.59375 294.089844 272.480469 C 294.089844 273.375 293.78125 274.132812 293.160156 274.761719 C 292.535156 275.394531 291.785156 275.707031 290.894531 275.707031 C 290.007812 275.707031 289.253906 275.394531 288.632812 274.761719 C 288.011719 274.132812 287.703125 273.375 287.703125 272.480469 C 287.703125 271.589844 288.015625 270.839844 288.632812 270.214844 C 289.257812 269.585938 290.015625 269.269531 290.894531 269.269531 C 291.777344 269.269531 292.535156 269.585938 293.160156 270.214844 Z M 293.523438 269.855469 C 292.800781 269.128906 291.925781 268.769531 290.894531 268.769531 C 289.875 268.769531 289.003906 269.128906 288.277344 269.855469 C 287.550781 270.582031 287.1875 271.457031 287.1875 272.480469 C 287.1875 273.515625 287.546875 274.394531 288.265625 275.121094 C 288.988281 275.855469 289.867188 276.21875 290.894531 276.21875 C 291.925781 276.21875 292.800781 275.851562 293.523438 275.121094 C 294.253906 274.390625 294.617188 273.515625 294.617188 272.480469 C 294.617188 271.453125 294.257812 270.578125 293.523438 269.855469 Z M 291.449219 272.308594 C 291.292969 272.367188 291.070312 272.402344 290.765625 272.402344 L 290.117188 272.402344 L 290.117188 270.921875 L 290.726562 270.921875 C 291.128906 270.921875 291.417969 270.96875 291.597656 271.070312 C 291.777344 271.171875 291.867188 271.371094 291.867188 271.671875 C 291.867188 271.980469 291.726562 272.195312 291.449219 272.308594 Z M 289.394531 274.511719 L 290.117188 274.511719 L 290.117188 272.90625 L 290.679688 272.90625 C 291.0625 272.90625 291.332031 272.945312 291.484375 273.035156 C 291.742188 273.1875 291.867188 273.5 291.867188 273.96875 L 291.867188 274.296875 L 291.882812 274.425781 C 291.882812 274.449219 291.890625 274.460938 291.894531 274.472656 C 291.894531 274.484375 291.898438 274.5 291.902344 274.511719 L 292.574219 274.511719 L 292.554688 274.457031 C 292.535156 274.425781 292.523438 274.359375 292.519531 274.25 C 292.511719 274.140625 292.503906 274.039062 292.503906 273.945312 L 292.503906 273.644531 C 292.503906 273.441406 292.433594 273.230469 292.28125 273.011719 C 292.132812 272.792969 291.898438 272.664062 291.582031 272.613281 C 291.832031 272.574219 292.03125 272.507812 292.171875 272.417969 C 292.441406 272.246094 292.574219 271.972656 292.574219 271.609375 C 292.574219 271.097656 292.359375 270.746094 291.941406 270.578125 C 291.703125 270.476562 291.332031 270.429688 290.828125 270.429688 L 289.398438 270.429688 L 289.398438 274.511719 " fill-opacity="1" fill-rule="nonzero"/><path fill="#000000" d="M 176.367188 269.550781 L 200.503906 339.527344 L 133.117188 339.515625 L 146.640625 297.542969 C 151.988281 297.511719 158.378906 297.613281 164.253906 297.523438 L 156.160156 323.664062 L 176.835938 323.664062 L 158.589844 269.589844 L 176.367188 269.550781 " fill-opacity="1" fill-rule="nonzero"/><path fill="#000000" d="M 235.386719 269.59375 L 204.316406 269.59375 L 204.28125 286.261719 L 226.03125 286.261719 L 226.03125 286.265625 C 236.347656 286.265625 244.570312 294.082031 244.570312 304.410156 C 244.570312 314.734375 236.042969 322.617188 225.726562 322.617188 L 220.898438 322.617188 L 220.898438 297.15625 L 204.316406 297.15625 L 204.316406 339.222656 L 235.386719 339.222656 C 251.332031 337.773438 262.832031 321.464844 262.832031 304.410156 C 262.832031 287.339844 250.121094 271.046875 235.386719 269.59375 " fill-opacity="1" fill-rule="nonzero"/><path fill="#000000" d="M 142.527344 291.445312 C 142.527344 279.300781 132.433594 269.808594 120.421875 269.40625 L 120.402344 269.40625 C 120.300781 269.40625 94.519531 269.40625 94.519531 269.40625 L 94.519531 286.007812 L 118.167969 286.007812 C 121.164062 286.191406 123.554688 288.394531 123.554688 291.445312 C 123.554688 294.554688 121.09375 297.085938 118.015625 297.210938 L 94.546875 297.210938 L 94.546875 339.277344 L 111.132812 339.277344 L 111.132812 313.8125 L 120.488281 313.773438 C 132.585938 313.140625 142.527344 303.570312 142.527344 291.445312 " fill-opacity="1" fill-rule="nonzero"/><path fill="#000000" d="M 266.984375 269.59375 L 284.152344 269.59375 L 284.152344 339.238281 L 266.984375 339.238281 Z M 266.984375 269.59375 " fill-opacity="1" fill-rule="nonzero"/></svg>